<svg width="24" height="24" viewBox="0 0 24 24" fill="none" xmlns="http://www.w3.org/2000/svg">
<rect width="24" height="24" rx="4" fill="#121312"/>
<path d="M7.2 17C6.87 17 6.5876 16.8777 6.3528 16.6331C6.118 16.3885 6.0004 16.0942 6 15.75V8.25C6 7.90625 6.1176 7.61208 6.3528 7.3675C6.588 7.12292 6.8704 7.00042 7.2 7H16.8C17.13 7 17.4126 7.1225 17.6478 7.3675C17.883 7.6125 18.0004 7.90667 18 8.25V15.75C18 16.0937 17.8826 16.3881 17.6478 16.6331C17.413 16.8781 17.1304 17.0004 16.8 17H7.2ZM12 12.625L7.2 9.5V15.75H16.8V9.5L12 12.625ZM12 11.375L16.8 8.25H7.2L12 11.375ZM7.2 9.5V8.25V15.75V9.5Z" fill="white"/>
</svg>
